<?xml version="1.0" encoding="iso-8859-1"?>
<!-- Uploaded to: SVG Repo, www.svgrepo.com, Generator: SVG Repo Mixer Tools -->
<svg height="800px" width="800px" version="1.1" id="Layer_1" xmlns="http://www.w3.org/2000/svg" xmlns:xlink="http://www.w3.org/1999/xlink" 
	 viewBox="0 0 512 512" xml:space="preserve">
<path style="fill:#57565C;" d="M225.156,506.382c-12.975-7.492-12.846-19.743,0.288-27.225c13.134-7.482,34.484-7.482,47.444,0
	c12.96,7.482,12.83,19.734-0.288,27.225C259.482,513.873,238.133,513.873,225.156,506.382z"/>
<path style="fill:#3E3D43;" d="M265.741,436.791v-0.01l0,0c0.021-2.459-1.58-4.916-4.809-6.78c-6.468-3.734-17.125-3.734-23.68,0
	c-3.28,1.868-4.935,4.333-4.959,6.798v53.947c-0.024,2.462,1.578,4.923,4.815,6.793c6.476,3.74,17.133,3.74,23.68,0
	c3.273-1.868,4.926-4.331,4.953-6.793l0,0v-0.002C265.741,490.742,265.741,436.792,265.741,436.791z"/>
<path style="fill:#57565C;" d="M237.108,443.59c-6.476-3.74-6.411-9.854,0.144-13.589c6.556-3.734,17.211-3.734,23.68,0
	c6.469,3.734,6.403,9.849-0.144,13.589C254.241,447.329,243.584,447.329,237.108,443.59z"/>
<path style="fill:#C6C5CB;" d="M261.812,187.771v-0.014h-0.002c-0.006-1.891-1.246-3.782-3.725-5.222
	c-4.976-2.888-13.128-2.894-18.117-0.014c-2.495,1.441-3.743,3.338-3.745,5.236l0,0v247.519l0,0
	c-0.002,1.896,1.242,3.793,3.733,5.231c4.982,2.877,13.135,2.883,18.117,0.014c2.499-1.439,3.745-3.342,3.739-5.244h0.001V187.781
	C261.812,187.777,261.812,187.774,261.812,187.771z"/>
<path style="fill:#77767E;" d="M389.429,251.558L193.822,138.624c-0.432-0.249-0.967-0.249-1.397,0l-69.855,40.398
	c-0.433,0.25-0.699,0.711-0.699,1.21c0,0.499,0.266,0.96,0.699,1.21l195.606,112.934c0.215,0.124,0.457,0.187,0.699,0.187
	s0.483-0.063,0.699-0.187l69.855-40.398c0.433-0.25,0.699-0.711,0.699-1.21S389.861,251.808,389.429,251.558z"/>
<path style="fill:#C6C5CB;" d="M386.729,235.238L191.121,122.304c-0.432-0.249-0.967-0.249-1.397,0
	c-0.433,0.25-0.699,0.711-0.699,1.21v16.133c0,0.772,0.625,1.397,1.397,1.397s1.397-0.625,1.397-1.397v-13.713l25.149,14.52v15.326
	c0,0.772,0.625,1.397,1.397,1.397c0.772,0,1.397-0.625,1.397-1.397v-13.713l25.149,14.52v15.325c0,0.772,0.625,1.397,1.397,1.397
	c0.772,0,1.397-0.625,1.397-1.397V158.2l25.149,14.52v15.325c0,0.772,0.625,1.397,1.397,1.397c0.772,0,1.397-0.625,1.397-1.397
	v-13.712l25.149,14.52v15.325c0,0.772,0.625,1.397,1.397,1.397s1.397-0.625,1.397-1.397v-13.712l25.149,14.52v15.327
	c0,0.772,0.625,1.397,1.397,1.397s1.397-0.625,1.397-1.397v-13.714l25.149,14.52v15.326c0,0.772,0.625,1.397,1.397,1.397
	c0.772,0,1.397-0.625,1.397-1.397v-13.713l25.149,14.52v15.326c0,0.772,0.625,1.397,1.397,1.397s1.397-0.625,1.397-1.397v-16.133
	C387.428,235.949,387.161,235.488,386.729,235.238z"/>
<polygon style="fill:#3E3D43;" points="165.185,10.833 151.213,18.899 151.213,164.099 346.82,277.033 360.792,268.967 
	360.792,123.766 "/>
<polygon style="fill:#57565C;" points="151.213,18.899 151.213,164.099 346.82,277.033 346.82,131.833 "/>
<polygon style="fill:#E0E0E2;" points="158.199,160.066 158.199,30.999 339.834,135.867 339.834,264.934 "/>
<polygon style="fill:#77767E;" points="346.82,131.833 360.792,123.766 165.185,10.833 151.213,18.899 "/>
<g>
	<path style="fill:#C6C5CB;" d="M319.575,273.553L123.968,160.619c-0.432-0.249-0.967-0.249-1.397,0
		c-0.433,0.25-0.699,0.711-0.699,1.21v16.133c0,0.772,0.625,1.397,1.397,1.397c0.772,0,1.397-0.625,1.397-1.397v-13.713
		l25.149,14.52v15.326c0,0.772,0.625,1.397,1.397,1.397s1.397-0.625,1.397-1.397v-13.713l25.149,14.52v15.327
		c0,0.772,0.625,1.397,1.397,1.397c0.772,0,1.397-0.625,1.397-1.397v-13.714l25.149,14.52v15.327c0,0.772,0.625,1.397,1.397,1.397
		c0.772,0,1.397-0.625,1.397-1.397v-13.714l25.149,14.52v15.327c0,0.772,0.625,1.397,1.397,1.397s1.397-0.625,1.397-1.397v-13.714
		l25.149,14.52v15.327c0,0.772,0.625,1.397,1.397,1.397c0.772,0,1.397-0.625,1.397-1.397v-13.714l25.149,14.52v15.326
		c0,0.772,0.625,1.397,1.397,1.397s1.397-0.625,1.397-1.397v-13.713l25.149,14.52v15.329c0,0.772,0.625,1.397,1.397,1.397
		s1.397-0.625,1.397-1.397v-16.133C320.273,274.263,320.008,273.803,319.575,273.553z"/>
	<path style="fill:#C6C5CB;" d="M151.964,70.526c-0.959,0-1.894-0.494-2.414-1.381c-0.781-1.331-0.334-3.044,0.998-3.824
		l97.054-56.898c1.331-0.782,3.044-0.334,3.824,0.998c0.781,1.331,0.334,3.044-0.998,3.824l-97.054,56.899
		C152.931,70.404,152.445,70.526,151.964,70.526z"/>
</g>
<g>
	<path style="fill:#D8D8DA;" d="M152.45,66.401c-4.309-2.489-11.06-2.489-15.369,0c-2.308,1.333-3.581,3.194-3.581,5.242
		c0,2.049,1.272,3.912,3.581,5.245c2.155,1.243,4.919,1.865,7.684,1.865s5.531-0.622,7.684-1.865
		c2.308-1.333,3.581-3.195,3.581-5.245C156.031,69.595,154.759,67.733,152.45,66.401z"/>
	<path style="fill:#D8D8DA;" d="M264.225,1.867c-4.309-2.489-11.06-2.489-15.369,0c-2.308,1.333-3.581,3.195-3.581,5.243
		s1.272,3.911,3.581,5.243c2.155,1.244,4.92,1.865,7.684,1.865c2.765,0,5.531-0.621,7.684-1.865c2.308-1.333,3.58-3.195,3.58-5.243
		S266.535,3.2,264.225,1.867z"/>
</g>
<path style="fill:#C6C5CB;" d="M263.65,135.112c-0.959,0-1.894-0.494-2.414-1.381c-0.781-1.331-0.334-3.044,0.998-3.824
	l97.054-56.899c1.332-0.784,3.044-0.334,3.824,0.998c0.781,1.331,0.334,3.044-0.998,3.824l-97.054,56.899
	C264.616,134.989,264.13,135.112,263.65,135.112z"/>
<g>
	<path style="fill:#D8D8DA;" d="M264.136,130.986c-4.309-2.489-11.06-2.489-15.369,0c-2.308,1.333-3.581,3.195-3.581,5.243
		c0,2.048,1.272,3.911,3.581,5.243c2.155,1.244,4.92,1.865,7.684,1.865c2.765,0,5.531-0.621,7.684-1.865
		c2.308-1.333,3.581-3.195,3.581-5.243C267.716,134.181,266.445,132.319,264.136,130.986z"/>
	<path style="fill:#D8D8DA;" d="M375.911,66.453c-4.309-2.489-11.06-2.489-15.369,0c-2.308,1.333-3.581,3.195-3.581,5.243
		c0,2.048,1.272,3.911,3.581,5.243c2.155,1.244,4.92,1.865,7.684,1.865s5.531-0.621,7.684-1.865
		c2.308-1.333,3.581-3.195,3.581-5.243C379.491,69.648,378.22,67.786,375.911,66.453z"/>
</g>
</svg>